#N canvas 173 405 1920 1109 12;
#X text 279 344 creation arguments are OSC address;
#X text 281 305 set message to change OSC address;
#X text 164 48 1 Set IP Address : network address;
#X text 164 68 2 Set Ports (sending and listening);
#X text 164 87 3 Set OSC Addresses (routing osc data;
#X text 155 26 Key Settings;
#X floatatom 145 261 5 0 0 0 - - - 0;
#N canvas 112 280 1545 1013 oscReceive 1;
#X obj 55 184 netreceive -u -b;
#X msg 78 143 listen 0;
#X text 152 143 stop listening;
#X text 64 58 packets from network;
#X text 173 177 UDP packets \, binary output, f 13;
#X obj 45 314 print;
#X obj 45 272 oscparse;
#X text 150 114 listen on port 8000;
#X obj 177 269 oscparse;
#X obj 177 293 list trim;
#X floatatom 68 372 5 0 0 0 - - - 0;
#X text 241 267 Parse the OSC message;
#X obj 317 310 route unity;
#X obj 100 342 route trigger;
#X obj 26 407 s osctrig;
#X msg 66 115 listen 8000;
#X obj 66 84 loadbang;
#X obj 243 356 route playseq;
#X floatatom 251 381 5 0 1 0 - - - 0;
#X obj 235 424 s oscplayseq;
#X floatatom 388 387 5 0 0 0 - - - 0;
#X obj 399 426 s oscwalkvolume;
#X obj 446 356 route walkvolume;
#X floatatom 631 400 5 0 0 0 - - - 0;
#X obj 639 342 route birdvolume;
#X obj 611 437 s oscbirdvolume;
#X floatatom 795 391 5 0 0 0 - - - 0;
#X obj 834 339 route walkspeed;
#X obj 806 430 s oscwalkspeed;
#X floatatom 973 395 5 0 0 0 - - - 0;
#X obj 1001 344 route rollvolume;
#X obj 1002 434 s oscrollvolume;
#X obj 1181 344 route jump;
#X floatatom 1187 387 5 0 0 0 - - - 0;
#X obj 1187 410 s oscjump;
#X floatatom 1289 387 5 0 0 0 - - - 0;
#X obj 1283 344 route tree;
#X obj 1289 410 s osctree;
#X floatatom 1391 386 5 0 0 0 - - - 0;
#X obj 1384 343 route california;
#X obj 1391 409 s osccalifornia;
#X floatatom 1319 548 5 0 0 0 - - - 0;
#X obj 1312 505 route sun;
#X obj 1319 571 s oscsun;
#X floatatom 941 557 5 0 0 0 - - - 0;
#X obj 934 514 route soda;
#X obj 941 580 s oscsoda;
#X connect 0 0 6 0;
#X connect 0 0 8 0;
#X connect 1 0 0 0;
#X connect 6 0 5 0;
#X connect 8 0 9 0;
#X connect 9 0 12 0;
#X connect 10 0 14 0;
#X connect 12 0 13 0;
#X connect 12 0 17 0;
#X connect 12 0 22 0;
#X connect 12 0 24 0;
#X connect 12 0 27 0;
#X connect 12 0 30 0;
#X connect 12 0 32 0;
#X connect 12 0 36 0;
#X connect 12 0 39 0;
#X connect 12 0 42 0;
#X connect 12 0 45 0;
#X connect 13 0 10 0;
#X connect 15 0 0 0;
#X connect 16 0 15 0;
#X connect 17 0 18 0;
#X connect 18 0 19 0;
#X connect 20 0 21 0;
#X connect 22 0 20 0;
#X connect 23 0 25 0;
#X connect 24 0 23 0;
#X connect 26 0 28 0;
#X connect 27 0 26 0;
#X connect 29 0 31 0;
#X connect 30 0 29 0;
#X connect 32 0 33 0;
#X connect 33 0 34 0;
#X connect 35 0 37 0;
#X connect 36 0 35 0;
#X connect 38 0 40 0;
#X connect 39 0 38 0;
#X connect 41 0 43 0;
#X connect 42 0 41 0;
#X connect 44 0 46 0;
#X connect 45 0 44 0;
#X restore 47 142 pd oscReceive;
#X obj 47 36 tgl 15 0 empty empty empty 17 7 0 10 #fcfcfc #000000 #000000
0 1;
#X msg 47 61 \; pd dsp \$1;
#X obj 146 345 oscformat PD message;
#X msg 178 306 set PD message;
#N canvas 727 97 450 300 oscSend 0;
#X msg 158 207 disconnect;
#X obj 61 253 netsend -u -b;
#X obj 59 55 list prepend send;
#X obj 59 80 list trim;
#X obj 59 29 r oscOut;
#X text 301 163 send to port 8001;
#X obj 147 108 loadbang;
#X msg 147 148 connect localhost 8001;
#X msg 150 175 connect 127.0.0.1 8001;
#X connect 0 0 1 0;
#X connect 2 0 3 0;
#X connect 3 0 1 0;
#X connect 4 0 2 0;
#X connect 6 0 7 0;
#X connect 7 0 1 0;
#X connect 8 0 1 0;
#X restore 47 118 pd oscSend;
#X obj 146 380 s oscOut;
#X obj 1959 1133 dac~;
#X obj 1780 599 noise~;
#X obj 1755 474 line~;
#X obj 1707 361 t b b;
#X obj 1657 441 pack 0 f;
#X floatatom 1715 416 5 0 0 0 - - - 0;
#X obj 1705 279 bng 15 250 50 0 empty empty empty 17 7 0 10 #fcfcfc
#000000 #000000;
#X obj 1844 831 *~;
#X obj 1860 884 *~ 1;
#X obj 1794 697 *~ 1;
#X obj 2027 442 line~;
#X obj 1979 329 t b b;
#X obj 1929 409 pack 0 f;
#X floatatom 1987 384 5 0 0 0 - - - 0;
#X obj 1976 263 bng 15 250 50 0 empty empty empty 17 7 0 10 #fcfcfc
#000000 #000000;
#X obj 1916 832 *~;
#X obj 2280 447 line~;
#X obj 2280 471 pow~ 2;
#X obj 2232 334 t b b;
#X obj 2182 414 pack 0 f;
#X floatatom 2240 389 5 0 0 0 - - - 0;
#X obj 2231 261 bng 15 250 50 0 empty empty empty 17 7 0 10 #fcfcfc
#000000 #000000;
#X obj 1991 834 *~, f 4;
#X obj 1627 658 *~ 0.05;
#X obj 1521 505 tgl 15 0 empty empty empty 17 7 0 10 #fcfcfc #000000
#000000 0 1;
#X obj 1866 585 snapshot~;
#X obj 1521 526 metro 2;
#X msg 2027 353 1 2;
#X msg 2280 358 1 2;
#X obj 1731 297 loadbang;
#X obj 2001 265 loadbang;
#X obj 2255 275 loadbang;
#X obj 1521 480 loadbang;
#X msg 1992 995 roomsize \$1;
#X floatatom 1993 973 5 0 0 0 - - - 0;
#X obj 1794 673 *~ 0.5;
#X obj 1868 634 + 300;
#X obj 1866 611 * -200;
#X obj 2041 576 snapshot~;
#X obj 1994 701 *~ 1;
#X floatatom 2114 957 5 0 0 0 - - - 0;
#X msg 2100 996 damping \$1;
#X obj 2451 425 line~;
#X obj 2403 312 t b b;
#X obj 2353 392 pack 0 f;
#X floatatom 2411 367 5 0 0 0 - - - 0;
#X obj 2402 277 bng 15 250 50 0 empty empty empty 17 7 0 10 #fcfcfc
#000000 #000000;
#X text 2457 273 env length ms;
#X obj 2426 253 loadbang;
#X obj 2252 841 *~;
#X obj 1979 353 del 2;
#X obj 2232 358 del 2;
#X obj 2050 156 bng 30 250 50 0 empty empty empty 17 7 0 10 #fcfcfc
#000000 #000000;
#X obj 2248 759 hip~ 100;
#X obj 1623 600 hip~ 3000;
#X obj 1627 629 lop~ 15000;
#X obj 2027 466 pow~ 3;
#X obj 1755 498 pow~ 4;
#X msg 1730 322 50;
#X msg 2002 291 30;
#X obj 2252 787 lop~ 1000;
#X msg 2425 275 5;
#X obj 1976 238 del 18;
#X obj 1702 254 del 150;
#X obj 2391 340 del 150;
#X msg 2451 336 1 150;
#X obj 2252 865 *~ 0.0002;
#X obj 1794 643 bp~ 7500;
#X obj 2041 601 * -80;
#X obj 2043 624 + 100;
#X obj 1994 671 bp~ 7000;
#X obj 2453 449 pow~ 1.5;
#X msg 2000 948 0.01;
#X msg 2121 931 0.99;
#X obj 1987 1021 freeverb~;
#X obj 1983 1052 *~ 0.02;
#X obj 1707 385 del 2;
#X msg 1755 385 1 2;
#X obj 1915 856 *~ 0.1;
#X msg 2255 297 20;
#X obj 2218 225 del 12;
#X text 2166 161 bang on impact;
#X obj 1999 926 loadbang;
#X obj 1859 913 hip~ 2000;
#X obj 2133 673 *~ 1;
#X obj 2133 643 bp~ 6500;
#X obj 1991 858 *~ 0.02;
#X msg 2184 610 20;
#X obj 2183 588 loadbang;
#X obj 1844 855 *~ 1;
#X obj 2021 102 r osctrig;
#X obj 778 66 r oscplayseq;
#X obj 840 295 phasor~;
#X obj 841 374 min~;
#X obj 842 490 wrap~;
#X obj 857 397 sig~ 1;
#X obj 857 422 /~;
#X obj 842 445 *~;
#X obj 947 423 min~;
#X obj 947 538 wrap~;
#X obj 962 446 sig~ 1;
#X obj 962 471 /~;
#X obj 947 494 *~;
#X obj 946 368 wrap~;
#X obj 827 779 *~;
#X obj 935 776 *~;
#X obj 850 237 sig~;
#X obj 946 346 +~ 0.5;
#X obj 897 273 sig~ 1;
#X obj 898 296 -~;
#X obj 842 468 +~ 1e-05;
#X obj 947 516 +~ 1e-05;
#X obj 858 522 r active;
#X obj 935 562 *~;
#X obj 844 560 *~;
#X obj 885 948 dac~;
#X obj 885 852 +~;
#X obj 1230 406 noise~;
#X obj 1237 577 lop~ 16;
#X obj 1132 696 vcf~ 3333 30;
#X obj 1132 539 *~;
#X obj 1132 563 *~;
#X obj 1238 603 *~ 23800;
#X obj 1131 467 /~;
#X obj 1160 440 lop~ 2000;
#X obj 1098 440 lop~ 300;
#X obj 1131 606 clip~ -0.9 0.9;
#X obj 1238 625 +~ 3400;
#X obj 1131 584 *~ 1e-05;
#X obj 1131 504 hip~ 2500;
#X obj 1238 650 clip~ 2000 10000;
#X msg 1228 677 1;
#X obj 1132 726 hip~ 900;
#X obj 1132 758 *~ 0.3;
#X obj 694 409 noise~;
#X obj 701 580 lop~ 16;
#X obj 596 699 vcf~ 3333 30;
#X obj 596 542 *~;
#X obj 596 566 *~;
#X obj 702 606 *~ 23800;
#X obj 595 470 /~;
#X obj 624 443 lop~ 2000;
#X obj 562 443 lop~ 300;
#X obj 595 609 clip~ -0.9 0.9;
#X obj 702 628 +~ 3400;
#X obj 595 587 *~ 1e-05;
#X obj 595 507 hip~ 2500;
#X obj 702 653 clip~ 2000 10000;
#X msg 692 680 1;
#X obj 596 729 hip~ 900;
#X obj 596 761 *~ 0.3;
#X obj 723 250 > 0;
#X obj 731 272 s active;
#X obj 723 316 sel 1;
#X msg 723 337 0;
#X obj 723 358 s bashphase;
#X obj 723 295 change;
#X obj 827 801 *~ 2;
#X obj 935 800 *~ 2;
#X obj 841 273 *~ 5;
#X obj 792 241 tgl 15 0 empty empty empty 17 7 0 10 #fcfcfc #000000
#000000 0 1;
#X obj 64 746 hsl 128 15 0 127 0 0 {empty} {empty} {empty} -2 -8 0
10 #fcfcfc #000000 #000000 0 1;
#X obj 688 1166 splitphase;
#X obj 907 1230 * 3;
#X obj 989 1230 * 3;
#X obj 707 1344 dac~;
#N canvas 0 0 470 305 texturesource 0;
#X obj 125 83 inlet~;
#X obj 128 243 outlet~;
#N canvas 0 0 855 637 8demux~ 0;
#X obj 223 17 inlet;
#X obj 223 47 route snow grass dirt gravel wood concrete metal;
#X obj 372 445 *~;
#X obj 398 445 *~;
#X obj 425 445 *~;
#X obj 451 445 *~;
#X obj 478 445 *~;
#X obj 504 445 *~;
#X obj 531 445 *~;
#X obj 557 445 *~;
#X msg 214 101 1;
#X msg 244 101 0;
#X obj 223 72 t b;
#X msg 268 129 1;
#X msg 298 129 0;
#X obj 277 100 t b;
#X msg 322 157 1;
#X msg 352 157 0;
#X obj 331 128 t b;
#X msg 377 186 1;
#X msg 407 186 0;
#X obj 386 157 t b;
#X msg 429 215 1;
#X msg 459 215 0;
#X obj 438 186 t b;
#X msg 481 244 1;
#X msg 511 244 0;
#X obj 490 215 t b;
#X msg 531 273 1;
#X msg 561 273 0;
#X obj 540 244 t b;
#X msg 581 302 1;
#X msg 611 302 0;
#X obj 590 273 t b;
#X text 586 384 why can I never think of a better way to do this?;
#X obj 204 202 inlet~;
#X obj 372 477 outlet~;
#X obj 398 502 outlet~;
#X obj 426 526 outlet~;
#X obj 452 551 outlet~;
#X obj 479 574 outlet~;
#X obj 505 599 outlet~;
#X obj 530 623 outlet~;
#X obj 556 648 outlet~;
#X connect 0 0 1 0;
#X connect 1 0 12 0;
#X connect 1 1 15 0;
#X connect 1 2 18 0;
#X connect 1 3 21 0;
#X connect 1 4 24 0;
#X connect 1 5 27 0;
#X connect 1 6 30 0;
#X connect 1 7 33 0;
#X connect 2 0 36 0;
#X connect 3 0 37 0;
#X connect 4 0 38 0;
#X connect 5 0 39 0;
#X connect 6 0 40 0;
#X connect 7 0 41 0;
#X connect 8 0 42 0;
#X connect 9 0 43 0;
#X connect 10 0 2 1;
#X connect 11 0 3 1;
#X connect 11 0 4 1;
#X connect 11 0 5 1;
#X connect 11 0 6 1;
#X connect 11 0 7 1;
#X connect 11 0 8 1;
#X connect 11 0 9 1;
#X connect 12 0 10 0;
#X connect 12 0 11 0;
#X connect 13 0 3 1;
#X connect 14 0 2 1;
#X connect 14 0 4 1;
#X connect 14 0 5 1;
#X connect 14 0 6 1;
#X connect 14 0 7 1;
#X connect 14 0 8 1;
#X connect 14 0 9 1;
#X connect 15 0 13 0;
#X connect 15 0 14 0;
#X connect 16 0 4 1;
#X connect 17 0 2 1;
#X connect 17 0 3 1;
#X connect 17 0 5 1;
#X connect 17 0 6 1;
#X connect 17 0 7 1;
#X connect 17 0 8 1;
#X connect 17 0 9 1;
#X connect 18 0 16 0;
#X connect 18 0 17 0;
#X connect 19 0 5 1;
#X connect 20 0 2 1;
#X connect 20 0 3 1;
#X connect 20 0 4 1;
#X connect 20 0 6 1;
#X connect 20 0 7 1;
#X connect 20 0 8 1;
#X connect 20 0 9 1;
#X connect 21 0 19 0;
#X connect 21 0 20 0;
#X connect 22 0 6 1;
#X connect 23 0 2 1;
#X connect 23 0 3 1;
#X connect 23 0 4 1;
#X connect 23 0 5 1;
#X connect 23 0 7 1;
#X connect 23 0 8 1;
#X connect 23 0 9 1;
#X connect 24 0 22 0;
#X connect 24 0 23 0;
#X connect 25 0 7 1;
#X connect 26 0 2 1;
#X connect 26 0 3 1;
#X connect 26 0 4 1;
#X connect 26 0 5 1;
#X connect 26 0 6 1;
#X connect 26 0 8 1;
#X connect 26 0 9 1;
#X connect 27 0 25 0;
#X connect 27 0 26 0;
#X connect 28 0 8 1;
#X connect 29 0 2 1;
#X connect 29 0 3 1;
#X connect 29 0 4 1;
#X connect 29 0 5 1;
#X connect 29 0 6 1;
#X connect 29 0 7 1;
#X connect 29 0 9 1;
#X connect 30 0 28 0;
#X connect 30 0 29 0;
#X connect 31 0 9 1;
#X connect 32 0 2 1;
#X connect 32 0 3 1;
#X connect 32 0 4 1;
#X connect 32 0 5 1;
#X connect 32 0 6 1;
#X connect 32 0 7 1;
#X connect 32 0 8 1;
#X connect 33 0 31 0;
#X connect 33 0 32 0;
#X connect 35 0 2 0;
#X connect 35 0 3 0;
#X connect 35 0 4 0;
#X connect 35 0 5 0;
#X connect 35 0 6 0;
#X connect 35 0 7 0;
#X connect 35 0 8 0;
#X connect 35 0 9 0;
#X restore 125 109 pd 8demux~;
#X obj 190 82 inlet;
#N canvas 0 0 726 641 snowtex 0;
#N canvas 0 0 776 658 snow 0;
#X obj 161 453 *~;
#X obj 109 225 noise~;
#X obj 146 412 vcf~ 200 3;
#X obj 241 366 loadbang;
#X obj 102 270 /~;
#X obj 103 343 clip~ -1 1;
#X obj 60 247 lop~ 110;
#X obj 121 246 lop~ 900;
#X obj 166 169 noise~;
#X obj 165 219 /~;
#X obj 123 196 lop~ 50;
#X obj 184 195 lop~ 70;
#X obj 103 290 *~;
#X obj 192 220 lop~ 10;
#X obj 191 241 *~ 17;
#X obj 190 264 *~;
#X obj 103 313 *~;
#X obj 189 286 +~ 0.5;
#X obj 181 142 inlet~;
#X obj 160 507 outlet~;
#X obj 247 154 switch~;
#X obj 247 128 inlet;
#X obj 102 365 hip~ 300;
#X obj 185 389 +~ 700;
#X obj 185 365 *~ 9000;
#X msg 241 386 0.5;
#X obj 162 476 *~ 0.2;
#X connect 0 0 26 0;
#X connect 1 0 6 0;
#X connect 1 0 7 0;
#X connect 2 0 0 0;
#X connect 3 0 25 0;
#X connect 4 0 12 0;
#X connect 5 0 22 0;
#X connect 6 0 4 0;
#X connect 7 0 4 1;
#X connect 8 0 10 0;
#X connect 8 0 11 0;
#X connect 8 0 13 0;
#X connect 9 0 12 1;
#X connect 10 0 9 0;
#X connect 11 0 9 1;
#X connect 12 0 16 0;
#X connect 13 0 14 0;
#X connect 14 0 15 0;
#X connect 14 0 15 1;
#X connect 15 0 17 0;
#X connect 16 0 5 0;
#X connect 17 0 16 1;
#X connect 18 0 0 1;
#X connect 18 0 24 0;
#X connect 21 0 20 0;
#X connect 22 0 2 0;
#X connect 23 0 2 1;
#X connect 24 0 23 0;
#X connect 25 0 2 2;
#X connect 26 0 19 0;
#X restore 158 117 pd snow;
#X obj 202 75 env~;
#X obj 202 96 > 0.5;
#X obj 180 38 inlet~;
#X obj 158 139 outlet~;
#X connect 0 0 4 0;
#X connect 1 0 2 0;
#X connect 2 0 0 1;
#X connect 3 0 1 0;
#X connect 3 0 0 0;
#X restore 8 170 pd snowtex;
#N canvas 0 0 726 641 dirttex 0;
#X obj 202 75 env~;
#X obj 202 96 > 0.5;
#X obj 180 38 inlet~;
#X obj 158 139 outlet~;
#N canvas 0 0 294 514 dirt 0;
#X obj 54 309 *~;
#X obj 72 47 inlet~;
#X obj 76 443 outlet~;
#X obj 138 59 switch~;
#X obj 138 33 inlet;
#X obj 128 221 osc~;
#X obj 127 157 *~;
#X obj 150 82 noise~;
#X obj 150 127 *~ 70;
#X obj 150 104 lop~ 80;
#X obj 100 127 +~ 0.3;
#X obj 128 242 hip~ 200;
#X obj 71 126 *~;
#X obj 70 148 *~;
#X obj 18 250 osc~ 80;
#X obj 18 228 +~ 40;
#X obj 19 202 *~ 500;
#X obj 77 394 +~;
#X obj 127 264 clip~ -1 1;
#X obj 128 179 *~ 70;
#X obj 126 330 *~ 0.04;
#X obj 55 332 *~ 0.5;
#X obj 128 200 +~ 70;
#X connect 0 0 21 0;
#X connect 1 0 10 0;
#X connect 1 0 12 0;
#X connect 1 0 12 1;
#X connect 4 0 3 0;
#X connect 5 0 11 0;
#X connect 6 0 19 0;
#X connect 7 0 9 0;
#X connect 8 0 6 1;
#X connect 9 0 8 0;
#X connect 10 0 6 0;
#X connect 11 0 18 0;
#X connect 12 0 13 0;
#X connect 12 0 13 1;
#X connect 13 0 0 1;
#X connect 13 0 16 0;
#X connect 14 0 0 0;
#X connect 15 0 14 0;
#X connect 16 0 15 0;
#X connect 17 0 2 0;
#X connect 18 0 20 0;
#X connect 19 0 22 0;
#X connect 20 0 17 1;
#X connect 21 0 17 0;
#X connect 22 0 5 0;
#X restore 158 117 pd dirt;
#X connect 0 0 1 0;
#X connect 1 0 4 1;
#X connect 2 0 0 0;
#X connect 2 0 4 0;
#X connect 4 0 3 0;
#X restore 173 169 pd dirttex;
#N canvas 0 0 726 641 grasstex 0;
#X obj 202 75 env~;
#X obj 202 96 > 0.5;
#X obj 180 38 inlet~;
#X obj 158 139 outlet~;
#N canvas 0 0 888 667 grass 0;
#X obj 163 404 *~;
#X obj 181 142 inlet~;
#X obj 401 564 outlet~;
#X obj 238 140 inlet;
#X obj 180 221 *~;
#X obj 179 243 *~;
#X obj 127 345 osc~ 80;
#X obj 401 527 +~;
#X obj 164 427 *~ 0.8;
#X obj 127 323 +~ 30;
#X obj 127 297 *~ 600;
#X obj 127 369 clip~ 0 0.5;
#X obj 238 166 switch~;
#X obj 725 115 noise~;
#X obj 732 286 lop~ 16;
#X obj 627 405 vcf~ 3333 30;
#X obj 627 248 *~;
#X obj 627 272 *~;
#X obj 733 312 *~ 23800;
#X obj 626 176 /~;
#X obj 655 149 lop~ 2000;
#X obj 593 149 lop~ 300;
#X obj 626 315 clip~ -0.9 0.9;
#X obj 733 334 +~ 3400;
#X obj 626 293 *~ 1e-05;
#X obj 626 213 hip~ 2500;
#X obj 611 489 *~;
#X obj 733 359 clip~ 2000 10000;
#X msg 723 386 1;
#X obj 718 405 init 1;
#X obj 627 435 hip~ 900;
#X obj 627 467 *~ 0.3;
#X connect 0 0 8 0;
#X connect 1 0 4 0;
#X connect 1 0 4 1;
#X connect 1 0 26 0;
#X connect 3 0 12 0;
#X connect 4 0 5 0;
#X connect 4 0 5 1;
#X connect 5 0 0 1;
#X connect 5 0 10 0;
#X connect 6 0 11 0;
#X connect 7 0 2 0;
#X connect 8 0 7 0;
#X connect 9 0 6 0;
#X connect 10 0 9 0;
#X connect 11 0 0 0;
#X connect 13 0 14 0;
#X connect 13 0 20 0;
#X connect 13 0 21 0;
#X connect 14 0 18 0;
#X connect 15 0 30 0;
#X connect 16 0 17 0;
#X connect 16 0 17 1;
#X connect 17 0 24 0;
#X connect 18 0 23 0;
#X connect 19 0 25 0;
#X connect 20 0 19 1;
#X connect 21 0 19 0;
#X connect 22 0 15 0;
#X connect 23 0 27 0;
#X connect 24 0 22 0;
#X connect 25 0 16 0;
#X connect 25 0 16 1;
#X connect 26 0 7 1;
#X connect 27 0 15 1;
#X connect 28 0 15 2;
#X connect 29 0 15 2;
#X connect 30 0 31 0;
#X connect 31 0 26 1;
#X restore 158 117 pd grass;
#X connect 0 0 1 0;
#X connect 1 0 4 1;
#X connect 2 0 0 0;
#X connect 2 0 4 0;
#X connect 4 0 3 0;
#X restore 87 170 pd grasstex;
#N canvas 0 0 726 641 gravtex 0;
#X obj 202 75 env~;
#X obj 202 96 > 0.5;
#X obj 180 38 inlet~;
#X obj 158 139 outlet~;
#N canvas 0 0 492 597 gravel 0;
#X obj 123 19 inlet~;
#X obj 123 499 outlet~;
#X obj 293 69 inlet;
#X obj 293 95 switch~;
#X obj 252 14 noise~;
#X obj 136 160 *~;
#X obj 136 107 /~;
#X obj 166 70 lop~ 2000;
#X obj 104 70 lop~ 300;
#X obj 137 241 clip~ -0.9 0.9;
#X obj 122 475 *~;
#X obj 156 380 clip~ 500 10000;
#X obj 154 271 lop~ 50;
#X obj 137 134 hip~ 400;
#X obj 137 219 *~ 0.01;
#X obj 155 297 *~ 50000;
#X obj 138 430 hip~ 200;
#X obj 138 453 *~ 2;
#X obj 156 355 +~;
#X obj 173 330 *~ 1000;
#X obj 138 406 vcf~ 3;
#X connect 0 0 10 0;
#X connect 0 0 19 0;
#X connect 2 0 3 0;
#X connect 4 0 7 0;
#X connect 4 0 8 0;
#X connect 4 0 12 0;
#X connect 5 0 14 0;
#X connect 6 0 13 0;
#X connect 7 0 6 1;
#X connect 8 0 6 0;
#X connect 9 0 20 0;
#X connect 10 0 1 0;
#X connect 11 0 20 1;
#X connect 12 0 15 0;
#X connect 13 0 5 0;
#X connect 13 0 5 1;
#X connect 14 0 9 0;
#X connect 15 0 18 0;
#X connect 16 0 17 0;
#X connect 17 0 10 1;
#X connect 18 0 11 0;
#X connect 19 0 18 1;
#X connect 20 0 16 0;
#X restore 158 117 pd gravel;
#X connect 0 0 1 0;
#X connect 1 0 4 1;
#X connect 2 0 0 0;
#X connect 2 0 4 0;
#X connect 4 0 3 0;
#X restore 250 168 pd gravtex;
#N canvas 0 0 726 641 woodtex 0;
#X obj 202 75 env~;
#X obj 180 38 inlet~;
#X obj 158 139 outlet~;
#N canvas 0 0 1177 818 wood 0;
#X obj 470 445 *~;
#X obj 181 142 inlet~;
#X obj 401 564 outlet~;
#X obj 238 140 inlet;
#X obj 180 221 *~;
#X obj 401 527 +~;
#X obj 237 163 switch~;
#X obj 466 255 noise~;
#X obj 419 322 *~ 6;
#X obj 801 262 noise~;
#X obj 355 423 *~;
#X obj 737 287 bp~ 123 20;
#X obj 180 251 *~ 2;
#X obj 336 293 bp~ 95 90;
#X obj 411 291 bp~ 134 90;
#X obj 489 290 bp~ 139 90;
#X obj 567 290 bp~ 154 90;
#X obj 815 286 bp~ 156 90;
#X obj 893 286 bp~ 189 90;
#X obj 745 318 *~ 8;
#X obj 662 289 bp~ 201 70;
#X obj 243 258 sqrt~;
#X obj 356 449 *~ 0.5;
#X obj 469 469 *~ 0.6;
#X connect 0 0 23 0;
#X connect 1 0 4 0;
#X connect 1 0 4 1;
#X connect 1 0 21 0;
#X connect 3 0 6 0;
#X connect 4 0 12 0;
#X connect 5 0 2 0;
#X connect 7 0 13 0;
#X connect 7 0 14 0;
#X connect 7 0 15 0;
#X connect 7 0 16 0;
#X connect 8 0 10 1;
#X connect 9 0 11 0;
#X connect 9 0 17 0;
#X connect 9 0 18 0;
#X connect 9 0 20 0;
#X connect 10 0 22 0;
#X connect 11 0 19 0;
#X connect 12 0 0 0;
#X connect 13 0 8 0;
#X connect 14 0 8 0;
#X connect 15 0 8 0;
#X connect 16 0 8 0;
#X connect 17 0 19 0;
#X connect 18 0 19 0;
#X connect 19 0 0 1;
#X connect 20 0 19 0;
#X connect 21 0 10 0;
#X connect 22 0 5 0;
#X connect 23 0 5 0;
#X restore 158 117 pd wood;
#X obj 202 96 > 0.5;
#X connect 0 0 4 0;
#X connect 1 0 0 0;
#X connect 1 0 3 0;
#X connect 3 0 2 0;
#X connect 4 0 3 1;
#X restore 332 167 pd woodtex;
#X text 233 81 surface select;
#X text 9 83 control envelope;
#X connect 0 0 2 0;
#X connect 2 0 4 0;
#X connect 2 1 6 0;
#X connect 2 2 5 0;
#X connect 2 3 7 0;
#X connect 2 4 8 0;
#X connect 3 0 2 1;
#X connect 4 0 1 0;
#X connect 5 0 1 0;
#X connect 6 0 1 0;
#X connect 7 0 1 0;
#X connect 8 0 1 0;
#X restore 688 1240 pd texturesource;
#X msg 834 1192 gravel;
#X obj 911 1071 hsl 128 15 0 1 0 1 walkspeed \$0-walkspeed walkspeed
38 7 1 8 #fcfcfc #000000 #000000 2540 1;
#X obj 1033 1230 * 1;
#X obj 907 1278 s~ n1;
#X obj 948 1278 s~ n2;
#X obj 989 1278 s~ n3;
#X obj 1033 1278 s~ a1;
#X obj 909 1096 hsl 128 15 0 1 0 1 \$0-heel \$0-heelf heel 38 7 1 8
#fcfcfc #000000 #000000 0 1;
#X obj 907 1208 r \$0-heel;
#X obj 948 1184 r \$0-roll;
#X obj 989 1208 r \$0-ball;
#X obj 1032 1186 r \$0-amp;
#X obj 909 1116 hsl 128 15 0 1 0 1 \$0-roll oscrollvolume roll 38 7
1 8 #fcfcfc #000000 #000000 254 1;
#X obj 909 1136 hsl 128 15 0 1 0 1 \$0-ball \$0-ballf ball 38 7 1 8
#fcfcfc #000000 #000000 1800 1;
#X obj 907 1252 sig~;
#X obj 948 1254 sig~;
#X obj 989 1253 sig~;
#X obj 1032 1254 sig~;
#N canvas 164 82 558 523 foot 0;
#X obj 265 122 -~ 0.666666;
#X obj 132 96 clip~ 0.125 0.875;
#X obj 132 122 -~ 0.125;
#N canvas 512 249 379 346 polycurve 0;
#X obj 0 67 *~;
#X obj 0 91 *~;
#X obj 37 151 -~;
#X obj 47 177 *~;
#X obj 0 32 *~ 1;
#X obj 47 200 *~ -1.5;
#X obj 63 66 -~;
#X obj 37 127 *~;
#X obj 54 22 inlet~ N;
#X obj 28 67 *~;
#X obj 0 0 inlet~ X;
#X obj 47 222 outlet~ P;
#X obj 72 43 sig~ 0;
#X connect 0 0 1 0;
#X connect 1 0 7 0;
#X connect 2 0 3 0;
#X connect 3 0 5 0;
#X connect 4 0 0 0;
#X connect 4 0 0 1;
#X connect 4 0 1 1;
#X connect 4 0 6 1;
#X connect 4 0 9 0;
#X connect 5 0 11 0;
#X connect 6 0 3 1;
#X connect 7 0 2 0;
#X connect 8 0 9 1;
#X connect 8 0 7 1;
#X connect 9 0 2 1;
#X connect 10 0 4 0;
#X connect 12 0 6 0;
#X restore 0 195 pd polycurve;
#N canvas 0 0 566 419 polycurve 0;
#X obj 173 193 *~;
#X obj 174 217 *~;
#X obj 237 168 sig~ 1;
#X obj 211 277 -~;
#X obj 220 303 *~;
#X obj 173 158 *~ 1;
#X obj 219 326 *~ -1.5;
#X obj 237 192 -~;
#X obj 210 253 *~;
#X obj 227 148 inlet~ N;
#X obj 201 193 *~;
#X obj 173 126 inlet~ X;
#X obj 218 351 outlet~ P;
#X connect 0 0 1 0;
#X connect 1 0 8 0;
#X connect 2 0 7 0;
#X connect 3 0 4 0;
#X connect 4 0 6 0;
#X connect 5 0 0 0;
#X connect 5 0 0 1;
#X connect 5 0 1 1;
#X connect 5 0 7 1;
#X connect 5 0 10 0;
#X connect 6 0 12 0;
#X connect 7 0 4 1;
#X connect 8 0 3 0;
#X connect 9 0 10 1;
#X connect 9 0 8 1;
#X connect 10 0 3 1;
#X connect 11 0 5 0;
#X restore 132 196 pd polycurve;
#N canvas 0 0 566 419 polycurve 0;
#X obj 173 193 *~;
#X obj 174 217 *~;
#X obj 237 168 sig~ 1;
#X obj 211 277 -~;
#X obj 220 303 *~;
#X obj 173 158 *~ 1;
#X obj 219 326 *~ -1.5;
#X obj 237 192 -~;
#X obj 210 253 *~;
#X obj 227 148 inlet~ N;
#X obj 201 193 *~;
#X obj 173 126 inlet~ X;
#X obj 218 351 outlet~ P;
#X connect 0 0 1 0;
#X connect 1 0 8 0;
#X connect 2 0 7 0;
#X connect 3 0 4 0;
#X connect 4 0 6 0;
#X connect 5 0 0 0;
#X connect 5 0 0 1;
#X connect 5 0 1 1;
#X connect 5 0 7 1;
#X connect 5 0 10 0;
#X connect 6 0 12 0;
#X connect 7 0 4 1;
#X connect 8 0 3 0;
#X connect 9 0 10 1;
#X connect 9 0 8 1;
#X connect 10 0 3 1;
#X connect 11 0 5 0;
#X restore 265 195 pd polycurve;
#X obj 80 170 r~ n1;
#X obj 210 170 r~ n2;
#X obj 344 170 r~ n3;
#X obj 132 0 inlet~;
#X obj 132 267 outlet~;
#X obj 132 26 clip~ 0 0.75;
#X obj 0 95 clip~ 0 0.33333;
#X obj 272 95 clip~ 0.666666 1;
#X obj 132 54 *~ 0.33333;
#X obj 132 144 *~ 1.33333;
#X obj 9 144 *~ 3;
#X obj 267 144 *~ 3;
#X connect 0 0 17 0;
#X connect 1 0 2 0;
#X connect 2 0 15 0;
#X connect 3 0 10 0;
#X connect 4 0 10 0;
#X connect 5 0 10 0;
#X connect 6 0 3 1;
#X connect 7 0 4 1;
#X connect 8 0 5 1;
#X connect 9 0 11 0;
#X connect 11 0 14 0;
#X connect 12 0 16 0;
#X connect 13 0 0 0;
#X connect 14 0 1 0;
#X connect 14 0 12 0;
#X connect 14 0 13 0;
#X connect 15 0 4 0;
#X connect 16 0 3 0;
#X connect 17 0 5 0;
#X restore 688 1194 pd foot;
#N canvas 0 0 470 305 texturesource 0;
#X obj 125 83 inlet~;
#X obj 128 243 outlet~;
#N canvas 0 0 1090 713 8demux~ 0;
#X obj 223 17 inlet;
#X obj 223 47 route snow grass dirt gravel wood concrete metal;
#X obj 372 445 *~;
#X obj 398 445 *~;
#X obj 425 445 *~;
#X obj 451 445 *~;
#X obj 478 445 *~;
#X obj 504 445 *~;
#X obj 531 445 *~;
#X obj 557 445 *~;
#X msg 214 101 1;
#X msg 244 101 0;
#X obj 223 72 t b;
#X msg 268 129 1;
#X msg 298 129 0;
#X obj 277 100 t b;
#X msg 322 157 1;
#X msg 352 157 0;
#X obj 331 128 t b;
#X msg 377 186 1;
#X msg 407 186 0;
#X obj 386 157 t b;
#X msg 429 215 1;
#X msg 459 215 0;
#X obj 438 186 t b;
#X msg 481 244 1;
#X msg 511 244 0;
#X obj 490 215 t b;
#X msg 531 273 1;
#X msg 561 273 0;
#X obj 540 244 t b;
#X msg 581 302 1;
#X msg 611 302 0;
#X obj 590 273 t b;
#X text 586 384 why can I never think of a better way to do this?;
#X obj 204 202 inlet~;
#X obj 372 477 outlet~;
#X obj 398 502 outlet~;
#X obj 426 526 outlet~;
#X obj 452 551 outlet~;
#X obj 479 574 outlet~;
#X obj 505 599 outlet~;
#X obj 530 623 outlet~;
#X obj 556 648 outlet~;
#X connect 0 0 1 0;
#X connect 1 0 12 0;
#X connect 1 1 15 0;
#X connect 1 2 18 0;
#X connect 1 3 21 0;
#X connect 1 4 24 0;
#X connect 1 5 27 0;
#X connect 1 6 30 0;
#X connect 1 7 33 0;
#X connect 2 0 36 0;
#X connect 3 0 37 0;
#X connect 4 0 38 0;
#X connect 5 0 39 0;
#X connect 6 0 40 0;
#X connect 7 0 41 0;
#X connect 8 0 42 0;
#X connect 9 0 43 0;
#X connect 10 0 2 1;
#X connect 11 0 3 1;
#X connect 11 0 4 1;
#X connect 11 0 5 1;
#X connect 11 0 6 1;
#X connect 11 0 7 1;
#X connect 11 0 8 1;
#X connect 11 0 9 1;
#X connect 12 0 10 0;
#X connect 12 0 11 0;
#X connect 13 0 3 1;
#X connect 14 0 2 1;
#X connect 14 0 4 1;
#X connect 14 0 5 1;
#X connect 14 0 6 1;
#X connect 14 0 7 1;
#X connect 14 0 8 1;
#X connect 14 0 9 1;
#X connect 15 0 13 0;
#X connect 15 0 14 0;
#X connect 16 0 4 1;
#X connect 17 0 2 1;
#X connect 17 0 3 1;
#X connect 17 0 5 1;
#X connect 17 0 6 1;
#X connect 17 0 7 1;
#X connect 17 0 8 1;
#X connect 17 0 9 1;
#X connect 18 0 16 0;
#X connect 18 0 17 0;
#X connect 19 0 5 1;
#X connect 20 0 2 1;
#X connect 20 0 3 1;
#X connect 20 0 4 1;
#X connect 20 0 6 1;
#X connect 20 0 7 1;
#X connect 20 0 8 1;
#X connect 20 0 9 1;
#X connect 21 0 19 0;
#X connect 21 0 20 0;
#X connect 22 0 6 1;
#X connect 23 0 2 1;
#X connect 23 0 3 1;
#X connect 23 0 4 1;
#X connect 23 0 5 1;
#X connect 23 0 7 1;
#X connect 23 0 8 1;
#X connect 23 0 9 1;
#X connect 24 0 22 0;
#X connect 24 0 23 0;
#X connect 25 0 7 1;
#X connect 26 0 2 1;
#X connect 26 0 3 1;
#X connect 26 0 4 1;
#X connect 26 0 5 1;
#X connect 26 0 6 1;
#X connect 26 0 8 1;
#X connect 26 0 9 1;
#X connect 27 0 25 0;
#X connect 27 0 26 0;
#X connect 28 0 8 1;
#X connect 29 0 2 1;
#X connect 29 0 3 1;
#X connect 29 0 4 1;
#X connect 29 0 5 1;
#X connect 29 0 6 1;
#X connect 29 0 7 1;
#X connect 29 0 9 1;
#X connect 30 0 28 0;
#X connect 30 0 29 0;
#X connect 31 0 9 1;
#X connect 32 0 2 1;
#X connect 32 0 3 1;
#X connect 32 0 4 1;
#X connect 32 0 5 1;
#X connect 32 0 6 1;
#X connect 32 0 7 1;
#X connect 32 0 8 1;
#X connect 33 0 31 0;
#X connect 33 0 32 0;
#X connect 35 0 2 0;
#X connect 35 0 3 0;
#X connect 35 0 4 0;
#X connect 35 0 5 0;
#X connect 35 0 6 0;
#X connect 35 0 7 0;
#X connect 35 0 8 0;
#X connect 35 0 9 0;
#X restore 125 109 pd 8demux~;
#X obj 190 82 inlet;
#N canvas 0 0 726 641 snowtex 0;
#N canvas 0 0 776 658 snow 0;
#X obj 161 453 *~;
#X obj 109 225 noise~;
#X obj 146 412 vcf~ 200 3;
#X obj 241 366 loadbang;
#X obj 102 270 /~;
#X obj 103 343 clip~ -1 1;
#X obj 60 247 lop~ 110;
#X obj 121 246 lop~ 900;
#X obj 166 169 noise~;
#X obj 165 219 /~;
#X obj 123 196 lop~ 50;
#X obj 184 195 lop~ 70;
#X obj 103 290 *~;
#X obj 192 220 lop~ 10;
#X obj 191 241 *~ 17;
#X obj 190 264 *~;
#X obj 103 313 *~;
#X obj 189 286 +~ 0.5;
#X obj 181 142 inlet~;
#X obj 160 507 outlet~;
#X obj 247 154 switch~;
#X obj 247 128 inlet;
#X obj 102 365 hip~ 300;
#X obj 185 389 +~ 700;
#X obj 185 365 *~ 9000;
#X msg 241 386 0.5;
#X obj 162 476 *~ 0.2;
#X connect 0 0 26 0;
#X connect 1 0 6 0;
#X connect 1 0 7 0;
#X connect 2 0 0 0;
#X connect 3 0 25 0;
#X connect 4 0 12 0;
#X connect 5 0 22 0;
#X connect 6 0 4 0;
#X connect 7 0 4 1;
#X connect 8 0 10 0;
#X connect 8 0 11 0;
#X connect 8 0 13 0;
#X connect 9 0 12 1;
#X connect 10 0 9 0;
#X connect 11 0 9 1;
#X connect 12 0 16 0;
#X connect 13 0 14 0;
#X connect 14 0 15 0;
#X connect 14 0 15 1;
#X connect 15 0 17 0;
#X connect 16 0 5 0;
#X connect 17 0 16 1;
#X connect 18 0 0 1;
#X connect 18 0 24 0;
#X connect 21 0 20 0;
#X connect 22 0 2 0;
#X connect 23 0 2 1;
#X connect 24 0 23 0;
#X connect 25 0 2 2;
#X connect 26 0 19 0;
#X restore 158 117 pd snow;
#X obj 202 75 env~;
#X obj 180 38 inlet~;
#X obj 158 139 outlet~;
#X obj 202 96 > 1.5;
#X connect 0 0 3 0;
#X connect 1 0 4 0;
#X connect 2 0 1 0;
#X connect 2 0 0 0;
#X connect 4 0 0 1;
#X restore 8 170 pd snowtex;
#N canvas 0 0 726 641 dirttex 0;
#X obj 202 75 env~;
#X obj 202 96 > 0.5;
#X obj 180 38 inlet~;
#X obj 158 139 outlet~;
#N canvas 0 0 294 514 dirt 0;
#X obj 54 309 *~;
#X obj 72 47 inlet~;
#X obj 76 443 outlet~;
#X obj 138 59 switch~;
#X obj 138 33 inlet;
#X obj 128 221 osc~;
#X obj 127 157 *~;
#X obj 150 82 noise~;
#X obj 150 127 *~ 70;
#X obj 150 104 lop~ 80;
#X obj 100 127 +~ 0.3;
#X obj 128 242 hip~ 200;
#X obj 71 126 *~;
#X obj 70 148 *~;
#X obj 18 250 osc~ 80;
#X obj 18 228 +~ 40;
#X obj 19 202 *~ 500;
#X obj 77 394 +~;
#X obj 127 264 clip~ -1 1;
#X obj 128 179 *~ 70;
#X obj 126 330 *~ 0.04;
#X obj 55 332 *~ 0.5;
#X obj 128 200 +~ 70;
#X connect 0 0 21 0;
#X connect 1 0 10 0;
#X connect 1 0 12 0;
#X connect 1 0 12 1;
#X connect 4 0 3 0;
#X connect 5 0 11 0;
#X connect 6 0 19 0;
#X connect 7 0 9 0;
#X connect 8 0 6 1;
#X connect 9 0 8 0;
#X connect 10 0 6 0;
#X connect 11 0 18 0;
#X connect 12 0 13 0;
#X connect 12 0 13 1;
#X connect 13 0 0 1;
#X connect 13 0 16 0;
#X connect 14 0 0 0;
#X connect 15 0 14 0;
#X connect 16 0 15 0;
#X connect 17 0 2 0;
#X connect 18 0 20 0;
#X connect 19 0 22 0;
#X connect 20 0 17 1;
#X connect 21 0 17 0;
#X connect 22 0 5 0;
#X restore 158 117 pd dirt;
#X connect 0 0 1 0;
#X connect 1 0 4 1;
#X connect 2 0 0 0;
#X connect 2 0 4 0;
#X connect 4 0 3 0;
#X restore 173 169 pd dirttex;
#N canvas 0 0 726 641 grasstex 0;
#X obj 202 75 env~;
#X obj 202 96 > 0.5;
#X obj 180 38 inlet~;
#X obj 158 139 outlet~;
#N canvas 0 0 888 667 grass 0;
#X obj 163 404 *~;
#X obj 181 142 inlet~;
#X obj 401 564 outlet~;
#X obj 238 140 inlet;
#X obj 180 221 *~;
#X obj 179 243 *~;
#X obj 127 345 osc~ 80;
#X obj 401 527 +~;
#X obj 164 427 *~ 0.8;
#X obj 127 323 +~ 30;
#X obj 127 297 *~ 600;
#X obj 127 369 clip~ 0 0.5;
#X obj 238 166 switch~;
#X obj 725 115 noise~;
#X obj 732 286 lop~ 16;
#X obj 627 405 vcf~ 3333 30;
#X obj 627 248 *~;
#X obj 627 272 *~;
#X obj 733 312 *~ 23800;
#X obj 626 176 /~;
#X obj 655 149 lop~ 2000;
#X obj 593 149 lop~ 300;
#X obj 626 315 clip~ -0.9 0.9;
#X obj 733 334 +~ 3400;
#X obj 626 293 *~ 1e-05;
#X obj 626 213 hip~ 2500;
#X obj 611 489 *~;
#X obj 733 359 clip~ 2000 10000;
#X msg 723 386 1;
#X obj 718 405 init 1;
#X obj 627 435 hip~ 900;
#X obj 627 467 *~ 0.3;
#X connect 0 0 8 0;
#X connect 1 0 4 0;
#X connect 1 0 4 1;
#X connect 1 0 26 0;
#X connect 3 0 12 0;
#X connect 4 0 5 0;
#X connect 4 0 5 1;
#X connect 5 0 0 1;
#X connect 5 0 10 0;
#X connect 6 0 11 0;
#X connect 7 0 2 0;
#X connect 8 0 7 0;
#X connect 9 0 6 0;
#X connect 10 0 9 0;
#X connect 11 0 0 0;
#X connect 13 0 14 0;
#X connect 13 0 20 0;
#X connect 13 0 21 0;
#X connect 14 0 18 0;
#X connect 15 0 30 0;
#X connect 16 0 17 0;
#X connect 16 0 17 1;
#X connect 17 0 24 0;
#X connect 18 0 23 0;
#X connect 19 0 25 0;
#X connect 20 0 19 1;
#X connect 21 0 19 0;
#X connect 22 0 15 0;
#X connect 23 0 27 0;
#X connect 24 0 22 0;
#X connect 25 0 16 0;
#X connect 25 0 16 1;
#X connect 26 0 7 1;
#X connect 27 0 15 1;
#X connect 28 0 15 2;
#X connect 29 0 15 2;
#X connect 30 0 31 0;
#X connect 31 0 26 1;
#X restore 158 117 pd grass;
#X connect 0 0 1 0;
#X connect 1 0 4 1;
#X connect 2 0 0 0;
#X connect 2 0 4 0;
#X connect 4 0 3 0;
#X restore 87 170 pd grasstex;
#N canvas 119 44 726 641 gravtex 0;
#X obj 44 26 env~;
#X obj 44 47 > 0.5;
#X obj 20 -2 inlet~;
#X obj 0 90 outlet~;
#N canvas 126 61 245 451 gravel 0;
#X obj 1 151 inlet~;
#X obj 40 431 outlet~;
#X obj 189 0 inlet;
#X obj 189 26 switch~;
#X obj 108 0 noise~;
#X obj 55 128 *~;
#X obj 56 79 /~;
#X obj 86 42 lop~ 2000;
#X obj 24 42 lop~ 300;
#X obj 55 173 clip~ -0.9 0.9;
#X obj 39 407 *~;
#X obj 73 312 clip~ 500 10000;
#X obj 73 195 lop~ 50;
#X obj 56 102 hip~ 400;
#X obj 55 151 *~ 0.01;
#X obj 73 215 *~ 50000;
#X obj 55 362 hip~ 200;
#X obj 55 385 *~ 2;
#X obj 73 287 +~;
#X obj 89 262 *~ 1000;
#X obj 55 338 vcf~ 3;
#X connect 0 0 10 0;
#X connect 0 0 19 0;
#X connect 2 0 3 0;
#X connect 4 0 7 0;
#X connect 4 0 8 0;
#X connect 4 0 12 0;
#X connect 5 0 14 0;
#X connect 6 0 13 0;
#X connect 7 0 6 1;
#X connect 8 0 6 0;
#X connect 9 0 20 0;
#X connect 10 0 1 0;
#X connect 11 0 20 1;
#X connect 12 0 15 0;
#X connect 13 0 5 0;
#X connect 13 0 5 1;
#X connect 14 0 9 0;
#X connect 15 0 18 0;
#X connect 16 0 17 0;
#X connect 17 0 10 1;
#X connect 18 0 11 0;
#X connect 19 0 18 1;
#X connect 20 0 16 0;
#X restore 0 68 pd gravel;
#X connect 0 0 1 0;
#X connect 1 0 4 1;
#X connect 2 0 0 0;
#X connect 2 0 4 0;
#X connect 4 0 3 0;
#X restore 250 168 pd gravtex;
#N canvas 0 0 726 641 woodtex 0;
#X obj 202 75 env~;
#X obj 202 96 > 0.5;
#X obj 180 38 inlet~;
#X obj 158 139 outlet~;
#N canvas 0 0 1177 818 wood 0;
#X obj 470 445 *~;
#X obj 181 142 inlet~;
#X obj 401 564 outlet~;
#X obj 238 140 inlet;
#X obj 180 221 *~;
#X obj 401 527 +~;
#X obj 237 163 switch~;
#X obj 466 255 noise~;
#X obj 419 322 *~ 6;
#X obj 801 262 noise~;
#X obj 355 423 *~;
#X obj 737 287 bp~ 123 20;
#X obj 180 251 *~ 2;
#X obj 336 293 bp~ 95 90;
#X obj 411 291 bp~ 134 90;
#X obj 489 290 bp~ 139 90;
#X obj 567 290 bp~ 154 90;
#X obj 815 286 bp~ 156 90;
#X obj 893 286 bp~ 189 90;
#X obj 745 318 *~ 8;
#X obj 662 289 bp~ 201 70;
#X obj 243 258 sqrt~;
#X obj 356 449 *~ 0.5;
#X obj 469 469 *~ 0.6;
#X connect 0 0 23 0;
#X connect 1 0 4 0;
#X connect 1 0 4 1;
#X connect 1 0 21 0;
#X connect 3 0 6 0;
#X connect 4 0 12 0;
#X connect 5 0 2 0;
#X connect 7 0 13 0;
#X connect 7 0 14 0;
#X connect 7 0 15 0;
#X connect 7 0 16 0;
#X connect 8 0 10 1;
#X connect 9 0 11 0;
#X connect 9 0 17 0;
#X connect 9 0 18 0;
#X connect 9 0 20 0;
#X connect 10 0 22 0;
#X connect 11 0 19 0;
#X connect 12 0 0 0;
#X connect 13 0 8 0;
#X connect 14 0 8 0;
#X connect 15 0 8 0;
#X connect 16 0 8 0;
#X connect 17 0 19 0;
#X connect 18 0 19 0;
#X connect 19 0 0 1;
#X connect 20 0 19 0;
#X connect 21 0 10 0;
#X connect 22 0 5 0;
#X connect 23 0 5 0;
#X restore 158 117 pd wood;
#X connect 0 0 1 0;
#X connect 1 0 4 1;
#X connect 2 0 0 0;
#X connect 2 0 4 0;
#X connect 4 0 3 0;
#X restore 332 167 pd woodtex;
#X text 233 81 surface select;
#X text 9 83 control envelope;
#X connect 0 0 2 0;
#X connect 2 0 4 0;
#X connect 2 1 6 0;
#X connect 2 2 5 0;
#X connect 2 3 7 0;
#X connect 2 4 8 0;
#X connect 3 0 2 1;
#X connect 4 0 1 0;
#X connect 5 0 1 0;
#X connect 6 0 1 0;
#X connect 7 0 1 0;
#X connect 8 0 1 0;
#X restore 753 1218 pd texturesource;
#X obj 714 1266 +~;
#X obj 684 1130 r walkspeed;
#N canvas 43 30 514 361 foot 0;
#X obj 20 130 clip~ 0 0.33333;
#X obj 283 130 clip~ 0.666666 1;
#X obj 20 178 *~ 3;
#X obj 285 178 *~ 3;
#X obj 284 156 -~ 0.666666;
#X obj 154 130 clip~ 0.125 0.875;
#X obj 153 156 -~ 0.125;
#X obj 152 178 *~ 1.33333;
#N canvas 512 249 566 419 polycurve 0;
#X obj 173 193 *~;
#X obj 174 217 *~;
#X obj 237 168 sig~ 1;
#X obj 211 277 -~;
#X obj 220 303 *~;
#X obj 173 158 *~ 1;
#X obj 219 326 *~ -1.5;
#X obj 237 192 -~;
#X obj 210 253 *~;
#X obj 227 148 inlet~ N;
#X obj 201 193 *~;
#X obj 173 126 inlet~ X;
#X obj 218 351 outlet~ P;
#X connect 0 0 1 0;
#X connect 1 0 8 0;
#X connect 2 0 7 0;
#X connect 3 0 4 0;
#X connect 4 0 6 0;
#X connect 5 0 0 0;
#X connect 5 0 0 1;
#X connect 5 0 1 1;
#X connect 5 0 7 1;
#X connect 5 0 10 0;
#X connect 6 0 12 0;
#X connect 7 0 4 1;
#X connect 8 0 3 0;
#X connect 9 0 10 1;
#X connect 9 0 8 1;
#X connect 10 0 3 1;
#X connect 11 0 5 0;
#X restore 21 229 pd polycurve;
#N canvas 0 0 566 419 polycurve 0;
#X obj 173 193 *~;
#X obj 174 217 *~;
#X obj 237 168 sig~ 1;
#X obj 211 277 -~;
#X obj 220 303 *~;
#X obj 173 158 *~ 1;
#X obj 219 326 *~ -1.5;
#X obj 237 192 -~;
#X obj 210 253 *~;
#X obj 227 148 inlet~ N;
#X obj 201 193 *~;
#X obj 173 126 inlet~ X;
#X obj 218 351 outlet~ P;
#X connect 0 0 1 0;
#X connect 1 0 8 0;
#X connect 2 0 7 0;
#X connect 3 0 4 0;
#X connect 4 0 6 0;
#X connect 5 0 0 0;
#X connect 5 0 0 1;
#X connect 5 0 1 1;
#X connect 5 0 7 1;
#X connect 5 0 10 0;
#X connect 6 0 12 0;
#X connect 7 0 4 1;
#X connect 8 0 3 0;
#X connect 9 0 10 1;
#X connect 9 0 8 1;
#X connect 10 0 3 1;
#X connect 11 0 5 0;
#X restore 152 230 pd polycurve;
#N canvas 0 0 566 419 polycurve 0;
#X obj 173 193 *~;
#X obj 174 217 *~;
#X obj 237 168 sig~ 1;
#X obj 211 277 -~;
#X obj 220 303 *~;
#X obj 173 158 *~ 1;
#X obj 219 326 *~ -1.5;
#X obj 237 192 -~;
#X obj 210 253 *~;
#X obj 227 148 inlet~ N;
#X obj 201 193 *~;
#X obj 173 126 inlet~ X;
#X obj 218 351 outlet~ P;
#X connect 0 0 1 0;
#X connect 1 0 8 0;
#X connect 2 0 7 0;
#X connect 3 0 4 0;
#X connect 4 0 6 0;
#X connect 5 0 0 0;
#X connect 5 0 0 1;
#X connect 5 0 1 1;
#X connect 5 0 7 1;
#X connect 5 0 10 0;
#X connect 6 0 12 0;
#X connect 7 0 4 1;
#X connect 8 0 3 0;
#X connect 9 0 10 1;
#X connect 9 0 8 1;
#X connect 10 0 3 1;
#X connect 11 0 5 0;
#X restore 284 229 pd polycurve;
#X obj 101 204 r~ n1;
#X obj 230 204 r~ n2;
#X obj 363 204 r~ n3;
#X obj 154 34 inlet~;
#X obj 152 301 outlet~;
#X obj 153 60 clip~ 0 0.75;
#X obj 154 88 *~ 1.33333;
#X connect 0 0 2 0;
#X connect 1 0 4 0;
#X connect 2 0 8 0;
#X connect 3 0 10 0;
#X connect 4 0 3 0;
#X connect 5 0 6 0;
#X connect 6 0 7 0;
#X connect 7 0 9 0;
#X connect 8 0 15 0;
#X connect 9 0 15 0;
#X connect 10 0 15 0;
#X connect 11 0 8 1;
#X connect 12 0 9 1;
#X connect 13 0 10 1;
#X connect 14 0 16 0;
#X connect 16 0 17 0;
#X connect 17 0 0 0;
#X connect 17 0 5 0;
#X connect 17 0 1 0;
#X restore 753 1193 pd foot;
#X obj 834 1167 loadbang;
#X obj 1147 1281 s \$0-walkspeed;
#X obj 1148 1227 / 100;
#X obj 1145 1158 loadbang;
#X msg 1152 1188 7;
#X floatatom 599 1189 5 0 0 0 - - - 0;
#X obj 710 1308 *~ 0;
#X obj 544 1109 r oscwalkvolume;
#X msg 803 200 0.07;
#X floatatom 990 878 5 0 0 0 - - - 0;
#X obj 893 899 *~ 0;
#X obj 1007 805 r oscbirdvolume;
#X obj 948 1230 * 3;
#X obj 102 536;
#X obj 1228 1183 r oscwalkspeed;
#X obj 1144 1075 r oscrollvolume;
#N canvas 1098 469 488 593 jump 0;
#X msg 53 233 50;
#X msg 53 270 0 0 \, 0.5 \$1 0;
#X obj 53 302 vline~;
#X obj 54 328 *~ -1;
#X obj 54 352 +~ 0.25;
#X obj 55 380 cos~;
#X obj 56 419 *~;
#X obj 56 446 *~ 2;
#X obj 123 418 noise~;
#X obj 123 448 lop~ 100 20;
#X obj 55 508 dac~;
#X obj 56 474 *~;
#X obj 53 205 tgl 15 0 empty empty empty 17 7 0 10 #fcfcfc #000000
#000000 0 1;
#X msg 34 173 1;
#X msg 66 173 0;
#X obj 59 107 bng 15 250 50 0 empty empty empty 17 7 0 10 #fcfcfc #000000
#000000;
#X obj 59 74 inlet;
#X obj 66 140 del 1000;
#X connect 0 0 1 0;
#X connect 1 0 2 0;
#X connect 2 0 3 0;
#X connect 3 0 4 0;
#X connect 4 0 5 0;
#X connect 5 0 6 0;
#X connect 5 0 6 1;
#X connect 6 0 7 0;
#X connect 7 0 11 0;
#X connect 8 0 9 0;
#X connect 9 0 11 1;
#X connect 11 0 10 0;
#X connect 11 0 10 1;
#X connect 12 0 0 0;
#X connect 13 0 12 0;
#X connect 14 0 12 0;
#X connect 15 0 13 0;
#X connect 15 0 17 0;
#X connect 16 0 15 0;
#X connect 17 0 14 0;
#X restore 611 1622 pd jump;
#X obj 611 1591 bng 15 250 50 0 empty empty empty 17 7 0 10 #fcfcfc
#000000 #000000;
#X obj 611 1557 r oscjump;
#X obj 871 1593 bng 15 250 50 0 empty empty empty 17 7 0 10 #fcfcfc
#000000 #000000;
#X obj 871 1559 r osctree;
#N canvas 741 463 1360 835 tree 0;
#X obj 84 707 *~;
#X obj 120 669 *~ 0.3;
#X msg 181 432 1 400 \, 0 400 400;
#X obj 55 349 noise~;
#X obj 55 381 bp~ 60000 800;
#X obj 55 449 lop~ 4000;
#X obj 55 415 hip~ 200;
#X obj 72 742 dac~;
#X obj 194 546 unpack f f f;
#X obj 194 497 t a b;
#X msg 212 521 0;
#X text 245 522 Default to zero delay if 2 args supplied;
#X obj 137 633 line~;
#X obj 137 464 route stop;
#X msg 137 556 stop;
#X obj 137 486 t b b;
#X msg 150 524 clear;
#N canvas 274 138 360 156 dbl-pipe 0;
#X obj 65 42 inlet;
#X obj 125 42 inlet;
#X obj 185 42 inlet;
#X obj 65 84 pipe 0;
#X obj 125 84 pipe 0;
#X obj 65 106 outlet;
#X obj 125 106 outlet;
#X connect 0 0 3 0;
#X connect 0 0 4 0;
#X connect 1 0 4 0;
#X connect 2 0 3 1;
#X connect 2 0 4 1;
#X connect 3 0 5 0;
#X connect 4 0 6 0;
#X restore 194 574 pd dbl-pipe;
#X obj 194 598 pack f f;
#X obj 228 398 tgl 15 0 empty empty empty 17 7 0 10 #fcfcfc #000000
#000000 0 1;
#X msg 208 366 1;
#X msg 245 366 0;
#X obj 208 77 bng 15 250 50 0 empty empty empty 17 7 0 10 #fcfcfc #000000
#000000;
#X obj 208 48 inlet;
#X obj 289 129 random 200;
#X obj 289 196 t b f;
#X obj 208 303 bng 15 250 50 0 empty empty empty 17 7 0 10 #fcfcfc
#000000 #000000;
#X obj 289 162 + 200;
#X obj 289 230 del 1;
#X obj 379 197 t b f;
#X obj 473 196 t b f;
#X obj 473 162 + 200;
#X obj 379 130 random 100;
#X obj 473 129 random 100;
#X obj 379 163 + 200;
#X obj 379 231 del 2;
#X obj 473 230 del 3;
#X obj 569 196 t b f;
#X obj 569 162 + 200;
#X obj 569 230 del 1;
#X obj 245 334 del 100;
#X obj 208 276 random 2;
#X obj 569 129 random 100;
#X obj 56 668 *~ 0.3;
#X connect 0 0 7 0;
#X connect 0 0 7 1;
#X connect 1 0 0 1;
#X connect 2 0 13 0;
#X connect 3 0 4 0;
#X connect 4 0 6 0;
#X connect 5 0 43 0;
#X connect 6 0 5 0;
#X connect 8 0 17 0;
#X connect 8 1 17 1;
#X connect 8 2 17 2;
#X connect 9 0 8 0;
#X connect 9 1 10 0;
#X connect 10 0 17 2;
#X connect 12 0 1 0;
#X connect 13 0 15 0;
#X connect 13 1 9 0;
#X connect 14 0 12 0;
#X connect 15 0 14 0;
#X connect 15 1 16 0;
#X connect 16 0 17 0;
#X connect 16 0 17 1;
#X connect 17 0 18 0;
#X connect 17 1 18 1;
#X connect 18 0 12 0;
#X connect 19 0 2 0;
#X connect 20 0 19 0;
#X connect 21 0 19 0;
#X connect 22 0 24 0;
#X connect 22 0 41 0;
#X connect 23 0 22 0;
#X connect 24 0 27 0;
#X connect 25 0 28 0;
#X connect 25 0 32 0;
#X connect 25 1 28 1;
#X connect 25 1 34 1;
#X connect 26 0 20 0;
#X connect 26 0 40 0;
#X connect 27 0 25 0;
#X connect 28 0 41 0;
#X connect 29 0 35 0;
#X connect 29 0 33 0;
#X connect 29 1 35 1;
#X connect 29 1 31 1;
#X connect 30 0 36 0;
#X connect 30 0 42 0;
#X connect 30 1 36 1;
#X connect 30 1 38 1;
#X connect 31 0 30 0;
#X connect 32 0 34 0;
#X connect 33 0 31 0;
#X connect 34 0 29 0;
#X connect 35 0 41 0;
#X connect 36 0 41 0;
#X connect 37 0 39 0;
#X connect 37 1 39 1;
#X connect 38 0 37 0;
#X connect 39 0 41 0;
#X connect 40 0 21 0;
#X connect 41 0 26 0;
#X connect 42 0 38 0;
#X connect 43 0 0 0;
#X restore 871 1623 pd tree;
#X obj 1857 1602 bng 15 250 50 0 empty empty empty 17 7 0 10 #fcfcfc
#000000 #000000;
#X obj 1988 1602 bng 15 250 50 0 empty empty empty 17 7 0 10 #fcfcfc
#000000 #000000;
#X msg 1969 1471 1;
#X msg 2075 1471 2;
#X msg 2192 1470 3;
#X floatatom 1857 1521 5 0 0 0 - - - 0;
#X obj 2275 1600 bng 15 250 50 0 empty empty empty 17 7 0 10 #fcfcfc
#000000 #000000;
#X text 1932 1520 Choose the trigger through 1 of 3 sequence options
;
#X obj 1857 1550 sel 1 2 3;
#X obj 1857 1396 s oscsilent;
#X obj 1857 1477 bng 15 250 50 0 empty empty empty 17 7 0 10 #fcfcfc
#000000 #000000;
#X msg 1849 1709 open californianew.wav \, 1;
#X obj 1849 1752 readsf~;
#X obj 1850 1802 dac~;
#X obj 1849 1681 bng 15 250 50 0 empty empty empty 17 7 0 10 #fcfcfc
#000000 #000000;
#X msg 1758 1703 0;
#X obj 1969 1438 bng 15 250 50 0 empty empty empty 17 7 0 10 #fcfcfc
#000000 #000000;
#X obj 2075 1437 bng 15 250 50 0 empty empty empty 17 7 0 10 #fcfcfc
#000000 #000000;
#X obj 2192 1438 bng 15 250 50 0 empty empty empty 17 7 0 10 #fcfcfc
#000000 #000000;
#X obj 2179 1758 readsf~;
#X obj 2180 1808 dac~;
#X obj 2179 1687 bng 15 250 50 0 empty empty empty 17 7 0 10 #fcfcfc
#000000 #000000;
#X msg 2088 1709 0;
#X obj 1856 1969 readsf~;
#X obj 1857 2019 dac~;
#X obj 1856 1898 bng 15 250 50 0 empty empty empty 17 7 0 10 #fcfcfc
#000000 #000000;
#X msg 1765 1920 0;
#X msg 2179 1715 open sun.wav \, 1;
#X obj 2088 1674 r stopsun;
#X msg 1856 1926 open soda.wav \, 1;
#X obj 1897 1895 s stopcali;
#X obj 1892 1677 s stopsoda;
#X obj 1938 1651 s stopsun;
#X obj 1758 1668 r stopcali;
#X obj 1765 1885 r stopsoda;
#X obj 1941 1867 s stopsun;
#X obj 2216 1683 s stopcali;
#X obj 2257 1653 s stopsoda;
#X obj 1969 1399 r osccalifornia;
#X obj 2075 1399 r oscsoda;
#X obj 2192 1399 r oscsun;
#X obj 1967 1085 *~ 10;
#X text 1293 578;
#X text 2044 57 pick up marble ball;
#X text 801 23 birdchip;
#X text 791 1016 walk sound;
#X text 1979 1319 branching background music;
#X text 611 1489 jump sound;
#X text 872 1494 tree interactive sound;
#X connect 6 0 10 0;
#X connect 8 0 9 0;
#X connect 10 0 13 0;
#X connect 11 0 10 0;
#X connect 15 0 68 0;
#X connect 15 0 81 0;
#X connect 15 0 84 0;
#X connect 15 0 67 0;
#X connect 15 0 99 0;
#X connect 16 0 71 0;
#X connect 17 0 90 0;
#X connect 17 1 91 0;
#X connect 18 0 16 0;
#X connect 19 0 18 1;
#X connect 20 0 17 0;
#X connect 20 0 76 0;
#X connect 21 0 103 0;
#X connect 22 0 97 0;
#X connect 23 0 21 0;
#X connect 24 0 70 0;
#X connect 25 0 64 0;
#X connect 25 1 41 0;
#X connect 26 0 24 0;
#X connect 27 0 26 1;
#X connect 28 0 25 0;
#X connect 29 0 92 0;
#X connect 30 0 31 0;
#X connect 31 0 36 1;
#X connect 32 0 65 0;
#X connect 32 1 42 0;
#X connect 33 0 30 0;
#X connect 34 0 33 1;
#X connect 35 0 32 0;
#X connect 36 0 100 0;
#X connect 37 0 49 0;
#X connect 38 0 40 0;
#X connect 39 0 51 0;
#X connect 40 0 39 0;
#X connect 40 0 52 0;
#X connect 41 0 24 0;
#X connect 42 0 30 0;
#X connect 43 0 72 0;
#X connect 44 0 73 0;
#X connect 45 0 93 0;
#X connect 46 0 38 0;
#X connect 47 0 88 0;
#X connect 48 0 47 0;
#X connect 49 0 23 0;
#X connect 50 0 81 2;
#X connect 51 0 50 0;
#X connect 52 0 82 0;
#X connect 53 0 29 0;
#X connect 54 0 55 0;
#X connect 55 0 88 0;
#X connect 56 0 85 0;
#X connect 57 0 78 0;
#X connect 57 1 79 0;
#X connect 58 0 56 0;
#X connect 59 0 58 1;
#X connect 60 0 57 0;
#X connect 62 0 75 0;
#X connect 63 0 80 0;
#X connect 64 0 26 0;
#X connect 65 0 33 0;
#X connect 66 0 60 0;
#X connect 66 0 77 0;
#X connect 67 0 74 0;
#X connect 68 0 69 0;
#X connect 69 0 37 0;
#X connect 70 0 29 1;
#X connect 70 0 52 0;
#X connect 71 0 21 1;
#X connect 71 0 39 0;
#X connect 72 0 19 0;
#X connect 73 0 27 0;
#X connect 74 0 63 0;
#X connect 75 0 59 0;
#X connect 76 0 28 0;
#X connect 76 0 94 0;
#X connect 77 0 20 0;
#X connect 78 0 58 0;
#X connect 79 0 56 0;
#X connect 80 0 267 0;
#X connect 81 0 49 0;
#X connect 82 0 83 0;
#X connect 83 0 84 2;
#X connect 84 0 53 0;
#X connect 85 0 63 1;
#X connect 86 0 48 0;
#X connect 87 0 54 0;
#X connect 88 0 89 0;
#X connect 89 0 267 0;
#X connect 90 0 18 0;
#X connect 91 0 16 0;
#X connect 92 0 22 0;
#X connect 93 0 34 0;
#X connect 94 0 35 0;
#X connect 96 0 86 0;
#X connect 96 0 87 0;
#X connect 97 0 88 0;
#X connect 97 0 267 0;
#X connect 98 0 36 0;
#X connect 99 0 98 0;
#X connect 100 0 22 0;
#X connect 101 0 99 2;
#X connect 102 0 101 0;
#X connect 103 0 22 0;
#X connect 104 0 66 0;
#X connect 105 0 212 0;
#X connect 106 0 107 0;
#X connect 106 0 121 0;
#X connect 107 0 111 0;
#X connect 108 0 128 0;
#X connect 109 0 110 0;
#X connect 110 0 111 1;
#X connect 111 0 124 0;
#X connect 112 0 116 0;
#X connect 113 0 127 1;
#X connect 114 0 115 0;
#X connect 115 0 116 1;
#X connect 116 0 125 0;
#X connect 117 0 112 0;
#X connect 118 0 171 0;
#X connect 119 0 172 0;
#X connect 120 0 123 1;
#X connect 120 0 173 0;
#X connect 121 0 117 0;
#X connect 122 0 123 0;
#X connect 123 0 107 1;
#X connect 123 0 110 1;
#X connect 123 0 112 1;
#X connect 123 0 115 1;
#X connect 124 0 108 0;
#X connect 125 0 113 0;
#X connect 126 0 127 0;
#X connect 126 0 128 1;
#X connect 127 0 119 0;
#X connect 128 0 118 1;
#X connect 130 0 214 0;
#X connect 131 0 132 0;
#X connect 131 0 138 0;
#X connect 131 0 139 0;
#X connect 132 0 136 0;
#X connect 133 0 146 0;
#X connect 134 0 135 0;
#X connect 134 0 135 1;
#X connect 135 0 142 0;
#X connect 136 0 141 0;
#X connect 137 0 143 0;
#X connect 138 0 137 1;
#X connect 139 0 137 0;
#X connect 140 0 133 0;
#X connect 141 0 144 0;
#X connect 142 0 140 0;
#X connect 143 0 134 0;
#X connect 143 0 134 1;
#X connect 144 0 133 1;
#X connect 145 0 133 2;
#X connect 146 0 147 0;
#X connect 147 0 119 1;
#X connect 148 0 149 0;
#X connect 148 0 155 0;
#X connect 148 0 156 0;
#X connect 149 0 153 0;
#X connect 150 0 163 0;
#X connect 151 0 152 0;
#X connect 151 0 152 1;
#X connect 152 0 159 0;
#X connect 153 0 158 0;
#X connect 154 0 160 0;
#X connect 155 0 154 1;
#X connect 156 0 154 0;
#X connect 157 0 150 0;
#X connect 158 0 161 0;
#X connect 159 0 157 0;
#X connect 160 0 151 0;
#X connect 160 0 151 1;
#X connect 161 0 150 1;
#X connect 162 0 150 2;
#X connect 163 0 164 0;
#X connect 164 0 118 0;
#X connect 165 0 166 0;
#X connect 165 0 170 0;
#X connect 167 0 168 0;
#X connect 168 0 169 0;
#X connect 170 0 167 0;
#X connect 171 0 130 0;
#X connect 172 0 130 1;
#X connect 173 0 106 0;
#X connect 174 0 165 0;
#X connect 176 0 199 0;
#X connect 176 1 203 0;
#X connect 177 0 195 0;
#X connect 178 0 197 0;
#X connect 180 0 201 0;
#X connect 181 0 180 1;
#X connect 181 0 200 1;
#X connect 183 0 198 0;
#X connect 189 0 177 0;
#X connect 190 0 216 0;
#X connect 191 0 178 0;
#X connect 192 0 183 0;
#X connect 195 0 184 0;
#X connect 196 0 185 0;
#X connect 197 0 186 0;
#X connect 198 0 187 0;
#X connect 199 0 180 0;
#X connect 200 0 201 1;
#X connect 201 0 210 0;
#X connect 202 0 176 0;
#X connect 203 0 200 0;
#X connect 204 0 181 0;
#X connect 206 0 205 0;
#X connect 207 0 208 0;
#X connect 208 0 206 0;
#X connect 209 0 210 1;
#X connect 210 0 179 0;
#X connect 210 0 179 1;
#X connect 211 0 209 0;
#X connect 212 0 120 0;
#X connect 212 0 174 0;
#X connect 213 0 214 1;
#X connect 214 0 129 0;
#X connect 214 0 129 1;
#X connect 215 0 213 0;
#X connect 216 0 196 0;
#X connect 218 0 206 0;
#X connect 221 0 220 0;
#X connect 222 0 221 0;
#X connect 223 0 225 0;
#X connect 224 0 223 0;
#X connect 226 0 240 0;
#X connect 227 0 247 0;
#X connect 228 0 231 0;
#X connect 229 0 231 0;
#X connect 230 0 231 0;
#X connect 231 0 234 0;
#X connect 232 0 251 0;
#X connect 234 0 226 0;
#X connect 234 1 232 0;
#X connect 234 2 227 0;
#X connect 236 0 235 0;
#X connect 237 0 238 0;
#X connect 238 0 239 0;
#X connect 238 0 239 1;
#X connect 240 0 237 0;
#X connect 240 0 257 0;
#X connect 240 0 258 0;
#X connect 241 0 238 0;
#X connect 242 0 228 0;
#X connect 243 0 229 0;
#X connect 244 0 230 0;
#X connect 245 0 246 0;
#X connect 245 0 246 1;
#X connect 247 0 253 0;
#X connect 247 0 262 0;
#X connect 247 0 263 0;
#X connect 248 0 245 0;
#X connect 249 0 250 0;
#X connect 249 0 250 1;
#X connect 251 0 255 0;
#X connect 251 0 256 0;
#X connect 251 0 261 0;
#X connect 252 0 249 0;
#X connect 253 0 245 0;
#X connect 254 0 248 0;
#X connect 255 0 249 0;
#X connect 259 0 241 0;
#X connect 260 0 252 0;
#X connect 264 0 242 0;
#X connect 265 0 243 0;
#X connect 266 0 244 0;
#X connect 267 0 14 0;
#X connect 267 0 14 1;
